<svg width="32" height="32" viewBox="0 0 32 32" xmlns="http://www.w3.org/2000/svg">
  <defs>
    <linearGradient id="bgGradient" x1="0%" y1="0%" x2="100%" y2="100%">
      <stop offset="0%" style="stop-color:#1e40af;stop-opacity:1" />
      <stop offset="100%" style="stop-color:#3b82f6;stop-opacity:1" />
    </linearGradient>
    <linearGradient id="paperGradient" x1="0%" y1="0%" x2="100%" y2="100%">
      <stop offset="0%" style="stop-color:#ffffff;stop-opacity:1" />
      <stop offset="100%" style="stop-color:#f8fafc;stop-opacity:1" />
    </linearGradient>
  </defs>
  
  <!-- Background circle -->
  <circle cx="16" cy="16" r="16" fill="url(#bgGradient)"/>
  
  <!-- Document shadow -->
  <rect x="8.5" y="6.5" width="15" height="19" rx="1" fill="#000000" opacity="0.1"/>
  
  <!-- Document body -->
  <rect x="8" y="6" width="15" height="19" rx="1" fill="url(#paperGradient)" stroke="#e2e8f0" stroke-width="0.5"/>
  
  <!-- Header section -->
  <rect x="10" y="8" width="11" height="2" rx="0.5" fill="#1e40af"/>
  
  <!-- Profile icon area -->
  <circle cx="12" cy="13" r="1.5" fill="#64748b" opacity="0.3"/>
  <rect x="15" y="12" width="6" height="0.7" rx="0.3" fill="#64748b" opacity="0.6"/>
  <rect x="15" y="13.2" width="4" height="0.5" rx="0.25" fill="#64748b" opacity="0.4"/>
  
  <!-- Content lines -->
  <rect x="10" y="16" width="11" height="0.4" rx="0.2" fill="#64748b" opacity="0.5"/>
  <rect x="10" y="17" width="9" height="0.4" rx="0.2" fill="#64748b" opacity="0.4"/>
  <rect x="10" y="18" width="10" height="0.4" rx="0.2" fill="#64748b" opacity="0.4"/>
  
  <rect x="10" y="19.5" width="11" height="0.4" rx="0.2" fill="#64748b" opacity="0.5"/>
  <rect x="10" y="20.5" width="8" height="0.4" rx="0.2" fill="#64748b" opacity="0.4"/>
  
  <rect x="10" y="22" width="9" height="0.4" rx="0.2" fill="#64748b" opacity="0.4"/>
  <rect x="10" y="23" width="7" height="0.4" rx="0.2" fill="#64748b" opacity="0.3"/>
</svg>
